<svg xmlns="http://www.w3.org/2000/svg" width="1200" height="534" viewBox="0 0 1200 534">
<rect width="100%" height="100%" fill="white"/>
<text x="24" y="34" font-size="24" font-family="Arial" font-weight="bold">MAcc Core Course Ranking (2024)</text>
<text x="24" y="56" font-size="14" font-family="Arial" fill="#444">Metric: Average preference score (Rank 1=8 ... Rank 8=1)</text>
<line x1="360.0" y1="62" x2="360.0" y2="504" stroke="#e5e7eb" stroke-width="1"/>
<text x="360.0" y="524" text-anchor="middle" font-size="12" font-family="Arial" fill="#555">0</text>
<line x1="455.0" y1="62" x2="455.0" y2="504" stroke="#e5e7eb" stroke-width="1"/>
<text x="455.0" y="524" text-anchor="middle" font-size="12" font-family="Arial" fill="#555">1</text>
<line x1="550.0" y1="62" x2="550.0" y2="504" stroke="#e5e7eb" stroke-width="1"/>
<text x="550.0" y="524" text-anchor="middle" font-size="12" font-family="Arial" fill="#555">2</text>
<line x1="645.0" y1="62" x2="645.0" y2="504" stroke="#e5e7eb" stroke-width="1"/>
<text x="645.0" y="524" text-anchor="middle" font-size="12" font-family="Arial" fill="#555">3</text>
<line x1="740.0" y1="62" x2="740.0" y2="504" stroke="#e5e7eb" stroke-width="1"/>
<text x="740.0" y="524" text-anchor="middle" font-size="12" font-family="Arial" fill="#555">4</text>
<line x1="835.0" y1="62" x2="835.0" y2="504" stroke="#e5e7eb" stroke-width="1"/>
<text x="835.0" y="524" text-anchor="middle" font-size="12" font-family="Arial" fill="#555">5</text>
<line x1="930.0" y1="62" x2="930.0" y2="504" stroke="#e5e7eb" stroke-width="1"/>
<text x="930.0" y="524" text-anchor="middle" font-size="12" font-family="Arial" fill="#555">6</text>
<line x1="1025.0" y1="62" x2="1025.0" y2="504" stroke="#e5e7eb" stroke-width="1"/>
<text x="1025.0" y="524" text-anchor="middle" font-size="12" font-family="Arial" fill="#555">7</text>
<line x1="1120.0" y1="62" x2="1120.0" y2="504" stroke="#e5e7eb" stroke-width="1"/>
<text x="1120.0" y="524" text-anchor="middle" font-size="12" font-family="Arial" fill="#555">8</text>
<text x="24" y="104" font-size="14" font-family="Arial">ACC 6400 Advanced Tax Business Entities</text>
<rect x="360" y="88" width="627.0" height="24" fill="#2563eb"/>
<text x="995.0" y="104" font-size="13" font-family="Arial" fill="#111">6.6 (n=55)</text>
<text x="24" y="152" font-size="14" font-family="Arial">ACC 6300 Advanced Data Analytics</text>
<rect x="360" y="136" width="517.8" height="24" fill="#2563eb"/>
<text x="885.8" y="152" font-size="13" font-family="Arial" fill="#111">5.45 (n=55)</text>
<text x="24" y="200" font-size="14" font-family="Arial">ACC 6560 Financial Accounting Theory &amp; Research I</text>
<rect x="360" y="184" width="430.4" height="24" fill="#2563eb"/>
<text x="798.4" y="200" font-size="13" font-family="Arial" fill="#111">4.53 (n=55)</text>
<text x="24" y="248" font-size="14" font-family="Arial">ACC 6060 Professionalism and Leadership</text>
<rect x="360" y="232" width="409.4" height="24" fill="#2563eb"/>
<text x="777.5" y="248" font-size="13" font-family="Arial" fill="#111">4.31 (n=55)</text>
<text x="24" y="296" font-size="14" font-family="Arial">ACC 6510 Financial Auditing</text>
<rect x="360" y="280" width="397.1" height="24" fill="#2563eb"/>
<text x="765.1" y="296" font-size="13" font-family="Arial" fill="#111">4.18 (n=55)</text>
<text x="24" y="344" font-size="14" font-family="Arial">ACC 6600 Business Law for Accountants</text>
<rect x="360" y="328" width="371.4" height="24" fill="#2563eb"/>
<text x="739.5" y="344" font-size="13" font-family="Arial" fill="#111">3.91 (n=55)</text>
<text x="24" y="392" font-size="14" font-family="Arial">ACC 6350 Management Control Systems</text>
<rect x="360" y="376" width="367.7" height="24" fill="#2563eb"/>
<text x="735.7" y="392" font-size="13" font-family="Arial" fill="#111">3.87 (n=55)</text>
<text x="24" y="440" font-size="14" font-family="Arial">ACC 6540 Professional Ethics</text>
<rect x="360" y="424" width="299.2" height="24" fill="#2563eb"/>
<text x="667.2" y="440" font-size="13" font-family="Arial" fill="#111">3.15 (n=55)</text>
</svg>