<svg xmlns="http://www.w3.org/2000/svg" width="1320" height="608" viewBox="0 0 1320 608">
<rect width="100%" height="100%" fill="white"/>
<text x="24" y="38" font-size="26" font-family="Arial" font-weight="bold">MAcc Core Course Ranking (2024)</text>
<text x="24" y="62" font-size="14" font-family="Arial" fill="#444">Metric: mean_rating where Rank 1=8 (best) ... Rank 8=1</text>
<line x1="520.0" y1="70" x2="520.0" y2="574" stroke="#e5e7eb" stroke-width="1"/>
<text x="520.0" y="598" text-anchor="middle" font-size="12" font-family="Arial" fill="#555">0</text>
<line x1="615.0" y1="70" x2="615.0" y2="574" stroke="#e5e7eb" stroke-width="1"/>
<text x="615.0" y="598" text-anchor="middle" font-size="12" font-family="Arial" fill="#555">1</text>
<line x1="710.0" y1="70" x2="710.0" y2="574" stroke="#e5e7eb" stroke-width="1"/>
<text x="710.0" y="598" text-anchor="middle" font-size="12" font-family="Arial" fill="#555">2</text>
<line x1="805.0" y1="70" x2="805.0" y2="574" stroke="#e5e7eb" stroke-width="1"/>
<text x="805.0" y="598" text-anchor="middle" font-size="12" font-family="Arial" fill="#555">3</text>
<line x1="900.0" y1="70" x2="900.0" y2="574" stroke="#e5e7eb" stroke-width="1"/>
<text x="900.0" y="598" text-anchor="middle" font-size="12" font-family="Arial" fill="#555">4</text>
<line x1="995.0" y1="70" x2="995.0" y2="574" stroke="#e5e7eb" stroke-width="1"/>
<text x="995.0" y="598" text-anchor="middle" font-size="12" font-family="Arial" fill="#555">5</text>
<line x1="1090.0" y1="70" x2="1090.0" y2="574" stroke="#e5e7eb" stroke-width="1"/>
<text x="1090.0" y="598" text-anchor="middle" font-size="12" font-family="Arial" fill="#555">6</text>
<line x1="1185.0" y1="70" x2="1185.0" y2="574" stroke="#e5e7eb" stroke-width="1"/>
<text x="1185.0" y="598" text-anchor="middle" font-size="12" font-family="Arial" fill="#555">7</text>
<line x1="1280.0" y1="70" x2="1280.0" y2="574" stroke="#e5e7eb" stroke-width="1"/>
<text x="1280.0" y="598" text-anchor="middle" font-size="12" font-family="Arial" fill="#555">8</text>
<text x="24" y="112" font-size="14" font-family="Arial">ACC 6400 Advanced Tax Business Entities</text>
<rect x="520" y="96" width="627.0" height="28" fill="#2563eb"/>
<text x="1157.0" y="114" font-size="13" font-family="Arial" fill="#111">6.6 (n=55)</text>
<text x="24" y="168" font-size="14" font-family="Arial">ACC 6300 Advanced Data Analytics</text>
<rect x="520" y="152" width="517.8" height="28" fill="#2563eb"/>
<text x="1047.8" y="170" font-size="13" font-family="Arial" fill="#111">5.45 (n=55)</text>
<text x="24" y="224" font-size="14" font-family="Arial">ACC 6560 FA Theory and Research I</text>
<rect x="520" y="208" width="430.4" height="28" fill="#2563eb"/>
<text x="960.4" y="226" font-size="13" font-family="Arial" fill="#111">4.53 (n=55)</text>
<text x="24" y="280" font-size="14" font-family="Arial">ACC 6060 Professionalism and Leadership</text>
<rect x="520" y="264" width="409.4" height="28" fill="#2563eb"/>
<text x="939.5" y="282" font-size="13" font-family="Arial" fill="#111">4.31 (n=55)</text>
<text x="24" y="336" font-size="14" font-family="Arial">ACC 6510 Financial Auditing</text>
<rect x="520" y="320" width="397.1" height="28" fill="#2563eb"/>
<text x="927.1" y="338" font-size="13" font-family="Arial" fill="#111">4.18 (n=55)</text>
<text x="24" y="392" font-size="14" font-family="Arial">ACC 6600 Business Law for Accountants</text>
<rect x="520" y="376" width="371.4" height="28" fill="#2563eb"/>
<text x="901.5" y="394" font-size="13" font-family="Arial" fill="#111">3.91 (n=55)</text>
<text x="24" y="448" font-size="14" font-family="Arial">ACC 6350 Management Control Systems</text>
<rect x="520" y="432" width="367.7" height="28" fill="#2563eb"/>
<text x="897.7" y="450" font-size="13" font-family="Arial" fill="#111">3.87 (n=55)</text>
<text x="24" y="504" font-size="14" font-family="Arial">ACC 6540 Professional Ethics</text>
<rect x="520" y="488" width="299.2" height="28" fill="#2563eb"/>
<text x="829.2" y="506" font-size="13" font-family="Arial" fill="#111">3.15 (n=55)</text>
</svg>